<svg xmlns="http://www.w3.org/2000/svg" viewBox="0 0 64 64">
  <defs>
    <linearGradient id="g" x1="10" y1="6" x2="56" y2="58" gradientUnits="userSpaceOnUse">
      <stop offset="0" stop-color="#2f50ff"/>
      <stop offset="1" stop-color="#1a28b8"/>
    </linearGradient>
  </defs>
  <rect width="64" height="64" rx="14" fill="url(#g)"/>
  <path d="M32 38c-5-9-5-17 0-24 5 7 5 15 0 24Z" fill="#fff"/>
  <path d="M32 38c-9-5-13-12-12-20 8 1 14 6 12 20Z" fill="#eaf0ff"/>
  <path d="M32 38c-10 1-17-2-21-9 8-4 15-2 21 9Z" fill="#fff"/>
  <path d="M32 38c6-8 13-11 21-9-4 7-11 10-21 9Z" fill="#eaf0ff"/>
  <path d="M32 38c-2-10 2-16 12-20 1 8-3 15-12 20Z" fill="#fff"/>
  <circle cx="32" cy="36" r="5.2" fill="#ffd166"/>
  <path d="M31 41c-2 7-6 11-13 12 1-7 6-11 13-12Z" fill="#7ee2aa"/>
  <path d="M34 41c5 3 8 8 8 14-6-2-10-6-8-14Z" fill="#7ee2aa" opacity=".92"/>
</svg>
